<svg width="60" height="62" viewBox="0 0 60 62" fill="none" xmlns="http://www.w3.org/2000/svg">
<g filter="url(#filter0_d)">
<mask id="mask0" mask-type="alpha" maskUnits="userSpaceOnUse" x="4" y="4" width="52" height="50">
<path d="M5.05513 26.1732C2.49041 40.6283 11.8517 51.0033 26.1251 53.6006C31.3767 53.6006 52.8607 39.0957 54.7703 32.8102C57.3351 18.3551 49.8166 7.30034 35.5432 4.70296C21.2698 2.10559 7.61985 11.7182 5.05513 26.1732Z" fill="white"/>
</mask>
<g mask="url(#mask0)">
<path d="M54.4264 29.4934C54.4264 43.1056 43.5336 54.1188 30.1231 54.1188C16.7127 54.1188 5.81982 43.1056 5.81982 29.4934C5.81982 15.8812 16.7127 4.86798 30.1231 4.86798C43.5336 4.86798 54.4264 15.8812 54.4264 29.4934Z" fill="#D60000" stroke="white" stroke-width="2"/>
<path d="M54.4712 32.8779C41.6359 32.9717 32.9218 34.5119 26.7808 54.1518C49.6969 54.1518 53.9594 41.3122 54.4712 32.8779Z" fill="#C4C4C4"/>
<path d="M54.4712 32.8779C41.6359 32.9717 32.9218 34.5119 26.7808 54.1518M54.4712 32.8779C53.5828 39.4611 26.7808 54.1518 26.7808 54.1518M54.4712 32.8779C53.9594 41.3122 49.6969 54.1518 26.7808 54.1518" stroke="white"/>
</g>
</g>
<defs>
<filter id="filter0_d" x="0.819824" y="4.27924" width="58.4469" height="57.3214" filterUnits="userSpaceOnUse" color-interpolation-filters="sRGB">
<feFlood flood-opacity="0" result="BackgroundImageFix"/>
<feColorMatrix in="SourceAlpha" type="matrix" values="0 0 0 0 0 0 0 0 0 0 0 0 0 0 0 0 0 0 127 0"/>
<feOffset dy="4"/>
<feGaussianBlur stdDeviation="2"/>
<feColorMatrix type="matrix" values="0 0 0 0 0 0 0 0 0 0 0 0 0 0 0 0 0 0 0.25 0"/>
<feBlend mode="normal" in2="BackgroundImageFix" result="effect1_dropShadow"/>
<feBlend mode="normal" in="SourceGraphic" in2="effect1_dropShadow" result="shape"/>
</filter>
</defs>
</svg>
